<svg height="512pt" viewBox="0 0 512 512" width="512pt" xmlns="http://www.w3.org/2000/svg"><path d="m512 256c0 141.386719-114.613281 256-256 256s-256-114.613281-256-256 114.613281-256 256-256 256 114.613281 256 256zm0 0" fill="#ffb74f"/><path d="m512 256c0-7.808594-.371094-15.53125-1.054688-23.160156l-131.566406-131.570313c-30.914062-32.792969-74.753906-53.269531-123.378906-53.269531-93.632812 0-169.539062 75.90625-169.539062 169.539062 0 48.609376 20.464843 92.4375 53.238281 123.347657l86.90625 86.976562 29.394531 38.175781 42.4375 42.4375c121.183594-20.21875 213.5625-125.550781 213.5625-252.476562zm0 0" fill="#ff8900"/><path d="m170.894531 355.511719 85.105469 110.527343 85.105469-110.527343zm0 0" fill="#fff"/><path d="m341.101562 355.511719-11.332031 14.71875-73.769531 95.808593v-110.527343zm0 0" fill="#fff5cb"/><path d="m425.539062 217.539062c0 93.632813-75.90625 169.535157-169.539062 169.535157s-169.539062-75.902344-169.539062-169.535157c0-93.632812 75.90625-169.539062 169.539062-169.539062s169.539062 75.90625 169.539062 169.539062zm0 0" fill="#ff0335"/><path d="m425.539062 217.539062c0 67.191407-39.089843 125.25-95.769531 152.691407-22.300781 10.800781-47.328125 16.847656-73.769531 16.847656v-339.078125c93.628906 0 169.539062 75.898438 169.539062 169.539062zm0 0" fill="#901"/><path d="m380.832031 217.539062c0 68.941407-55.890625 124.828126-124.832031 124.828126s-124.832031-55.886719-124.832031-124.828126c0-68.941406 55.890625-124.832031 124.832031-124.832031s124.832031 55.890625 124.832031 124.832031zm0 0" fill="#fff"/><path d="m380.828125 217.539062c0 68.941407-55.886719 124.832032-124.828125 124.832032v-249.660156c68.941406 0 124.828125 55.890624 124.828125 124.828124zm0 0" fill="#fff5cb"/><path d="m245.183594 122.777344v37.464844c0 2.566406-1.863282 4.871093-4.417969 5.128906-2.929687.292968-5.429687-2.023438-5.429687-4.898438v-37.699218h-11.011719v37.464843c0 2.570313-1.863281 4.871094-4.417969 5.128907-2.929688.296874-5.425781-2.019532-5.425781-4.894532v-37.699218h-10.816407v46.894531c0 10.914062 6.773438 20.316406 16.320313 24.230469v111c0 5.441406 4.410156 9.847656 9.847656 9.847656s9.84375-4.410156 9.84375-9.847656v-111c9.550781-3.910157 16.324219-13.3125 16.324219-24.226563v-46.894531zm0 0" fill="#00dfc1"/><path d="m302.511719 122.777344c-17.566407 0-31.804688 14.238281-31.804688 31.800781v77.6875h12.015625v72.636719c0 5.4375 4.410156 9.84375 9.84375 9.84375h.097656c5.4375 0 9.84375-4.40625 9.84375-9.84375v-182.125zm0 0" fill="#00ad95"/></svg>